<?xml version="1.0" encoding="UTF-8" standalone="no"?>
<!-- Generator: Gravit.io -->
<svg xmlns="http://www.w3.org/2000/svg" xmlns:xlink="http://www.w3.org/1999/xlink" style="isolation:isolate" viewBox="0 0 566.929 566.929" width="566.929pt" height="566.929pt"><defs><clipPath id="_clipPath_JF6BhkATTULS9R5pY2SdWImmAiHhdKd0"><rect width="566.929" height="566.929"/></clipPath></defs><g clip-path="url(#_clipPath_JF6BhkATTULS9R5pY2SdWImmAiHhdKd0)"><path d=" M 167.589 71.795 C 180.617 71.795 191.757 81.201 191.757 92.201 L 191.757 137.681 C 201.158 130.238 219.2 129.324 230.878 140.55 C 243.467 134.042 260.114 139.572 265.242 148.042 C 292.34 143.955 304.539 158.038 304.539 181.11 C 304.539 182.361 304.427 187.157 304.432 188.398 C 304.524 216.624 287.301 223.421 283.303 244.754 C 282.307 250.071 276.746 253.986 270.232 253.986 L 175.645 253.986 L 175.645 253.986 C 165.517 253.981 155.854 249.154 151.467 241.021 C 144.301 227.864 124.425 197.563 108.828 192.041 C 98.794 188.49 92.789 182.302 92.785 173.822 C 92.777 158.235 112.14 147.518 129.681 153.727 C 134.29 155.359 138.873 157.513 143.422 160.173 L 143.422 92.201 C 143.422 81.52 154.75 71.795 167.589 71.795 Z  M 167.781 261.274 L 273.658 261.274 C 280.968 261.274 286.893 266.168 286.893 272.206 L 286.893 294.069 C 286.893 300.106 280.968 305 273.658 305 L 167.781 305 C 160.472 305 154.547 300.106 154.547 294.069 L 154.547 272.206 C 154.547 266.168 160.472 261.274 167.781 261.274 Z  M 260.424 274.027 C 254.332 274.027 249.395 278.106 249.395 283.137 C 249.395 288.168 254.332 292.247 260.424 292.247 C 266.515 292.247 271.452 288.168 271.452 283.137 C 271.452 278.106 266.515 274.027 260.424 274.027 Z " fill="rgb(202,14,14)"/><path d=" M 467.009 288.96 L 440.671 309.477 C 437.986 311.568 433.644 311.568 430.959 309.477 L 367.543 260.078 C 364.858 257.986 364.858 254.604 367.543 252.512 L 393.881 231.996 C 404.564 223.674 421.932 223.674 432.673 231.996 L 467.009 258.743 C 477.75 267.065 477.75 280.594 467.009 288.96 Z  M 344.919 270.135 L 194.891 387.002 L 182.779 441.073 C 181.123 448.372 189.292 454.691 198.662 453.445 L 268.077 443.966 L 418.104 327.1 C 420.789 325.008 420.789 321.626 418.104 319.534 L 354.688 270.135 C 351.946 268.044 347.604 268.044 344.919 270.135 L 344.919 270.135 Z  M 253.451 376.988 C 250.309 374.541 250.309 370.624 253.451 368.177 L 341.434 299.641 C 344.576 297.194 349.604 297.194 352.746 299.641 C 355.888 302.089 355.888 306.005 352.746 308.453 L 264.763 376.988 C 261.621 379.436 256.593 379.436 253.451 376.988 L 253.451 376.988 Z  M 232.827 414.416 L 260.25 414.416 L 260.25 430.571 L 223.4 435.599 L 205.632 421.759 L 212.088 393.054 L 232.827 393.054 L 232.827 414.416 Z " fill="rgb(51,0,162)"/><text transform="matrix(1,0,0,1,239.732,323.469)" style="font-family:'Open Sans';font-weight:400;font-size:72px;font-style:normal;fill:#0cb333;stroke:none;">&#x26;</text></g></svg>